<?xml version="1.0" encoding="UTF-8"?>
<!DOCTYPE svg PUBLIC "-//W3C//DTD SVG 1.1//EN" "http://www.w3.org/Graphics/SVG/1.1/DTD/svg11.dtd">
<svg xmlns="http://www.w3.org/2000/svg" version="1.1" width="472px" height="500px" style="shape-rendering:geometricPrecision; text-rendering:geometricPrecision; image-rendering:optimizeQuality; fill-rule:evenodd; clip-rule:evenodd" xmlns:xlink="http://www.w3.org/1999/xlink">
<g><path style="opacity:0.975" fill="#FFFFFF" d="M 225.5,23.5 C 251.079,20.7117 271.245,29.7117 286,50.5C 344.466,166.432 402.133,282.765 459,399.5C 467.166,439.645 451.666,465.478 412.5,477C 374.167,477.667 335.833,477.667 297.5,477C 283.516,473.105 272.016,465.605 263,454.5C 248.078,426.324 233.411,397.99 219,369.5C 217.786,367.951 216.286,366.785 214.5,366C 176.195,352.853 155.862,326.02 153.5,285.5C 155.568,248.521 173.568,222.687 207.5,208C 255.026,194.853 290.193,210.019 313,253.5C 323.868,282.08 320.868,309.08 304,334.5C 291.306,350.436 275.14,361.269 255.5,367C 265.738,390.309 276.905,413.143 289,435.5C 292.264,439.382 296.43,441.549 301.5,442C 332.665,443.351 363.999,443.684 395.5,443C 405.837,442.008 412.671,436.508 416,426.5C 416.667,420.167 416.667,413.833 416,407.5C 363.394,299.956 311.061,192.289 259,84.5C 249.895,73.9359 239.062,71.7692 226.5,78C 224.667,79.8333 222.833,81.6667 221,83.5C 170.031,184.771 119.031,286.104 68,387.5C 63.6629,395.345 60.8296,403.678 59.5,412.5C 60.5456,420.756 63.8789,427.923 69.5,434C 70.8333,434.667 72.1667,435.333 73.5,436C 82.1161,437.173 90.7827,437.839 99.5,438C 135.189,438.435 170.856,439.435 206.5,441C 207.428,441.388 208.095,442.055 208.5,443C 203.643,454.373 195.976,463.373 185.5,470C 179.883,473.317 173.883,475.65 167.5,477C 131.833,477.667 96.1667,477.667 60.5,477C 34.5279,471.694 18.3613,456.194 12,430.5C 11.105,420.439 11.4383,410.439 13,400.5C 69.9449,283.277 127.945,166.61 187,50.5C 196.188,36.1678 209.021,27.1678 225.5,23.5 Z M 227.5,236.5 C 256.485,234.561 275.651,247.228 285,274.5C 288.854,301.301 278.687,320.467 254.5,332C 225.812,340.107 204.646,330.94 191,304.5C 183.308,280.585 189.141,260.752 208.5,245C 214.453,241.081 220.786,238.248 227.5,236.5 Z"/></g>
<g><path style="opacity:0.031" fill="#FFFFFF" d="M 443.5,74.5 C 445.337,74.6395 445.67,75.3061 444.5,76.5C 443.702,76.0431 443.369,75.3764 443.5,74.5 Z"/></g>
<g><path style="opacity:0.021" fill="#FFFFFF" d="M 419.5,90.5 C 421.465,90.9483 421.798,91.9483 420.5,93.5C 419.614,92.675 419.281,91.675 419.5,90.5 Z"/></g>
</svg>
